<?xml version="1.0" standalone="no"?><!DOCTYPE svg PUBLIC "-//W3C//DTD SVG 1.1//EN" "http://www.w3.org/Graphics/SVG/1.1/DTD/svg11.dtd"><svg t="1522075580628" class="icon" style="" viewBox="0 0 1024 1024" version="1.1" xmlns="http://www.w3.org/2000/svg" p-id="2238" xmlns:xlink="http://www.w3.org/1999/xlink" width="200" height="200"><defs><style type="text/css"></style></defs><path d="M951.2 542.8H369.4c-5 0-9.1-4.1-9.1-9.1V122c0-5 4.1-9.1 9.1-9.1h581.8c5 0 9.1 4.1 9.1 9.1v411.7c0.1 5-4 9.1-9.1 9.1z m-572.6-18.2h563.5V131.1H378.6v393.5zM208.3 265.4h-80.6c-5 0-9.1-4.1-9.1-9.1v-80.6c0-5 4.1-9.1 9.1-9.1h80.6c5 0 9.1 4.1 9.1 9.1v80.6c0 5-4 9.1-9.1 9.1z m-71.4-18.3h62.3v-62.3h-62.3v62.3zM315.7 265.4h-80.6c-5 0-9.1-4.1-9.1-9.1v-80.6c0-5 4.1-9.1 9.1-9.1h80.6c5 0 9.1 4.1 9.1 9.1v80.6c0.1 5-4 9.1-9.1 9.1z m-71.4-18.3h62.3v-62.3h-62.3v62.3zM208.3 381.7h-80.6c-5 0-9.1-4.1-9.1-9.1V292c0-5 4.1-9.1 9.1-9.1h80.6c5 0 9.1 4.1 9.1 9.1v80.6c0 5-4 9.1-9.1 9.1z m-71.4-18.3h62.3v-62.3h-62.3v62.3zM315.7 381.7h-80.6c-5 0-9.1-4.1-9.1-9.1V292c0-5 4.1-9.1 9.1-9.1h80.6c5 0 9.1 4.1 9.1 9.1v80.6c0.1 5-4 9.1-9.1 9.1z m-71.4-18.3h62.3v-62.3h-62.3v62.3zM208.3 498.1h-80.6c-5 0-9.1-4.1-9.1-9.1v-80.6c0-5 4.1-9.1 9.1-9.1h80.6c5 0 9.1 4.1 9.1 9.1V489c0 5-4 9.1-9.1 9.1z m-71.4-18.3h62.3v-62.3h-62.3v62.3zM315.7 498.1h-80.6c-5 0-9.1-4.1-9.1-9.1v-80.6c0-5 4.1-9.1 9.1-9.1h80.6c5 0 9.1 4.1 9.1 9.1V489c0.1 5-4 9.1-9.1 9.1z m-71.4-18.3h62.3v-62.3h-62.3v62.3zM951.2 748.7H815.1c-5 0-9.1-4.1-9.1-9.1s4.1-9.1 9.1-9.1h127v-116H83.2v116h532.4c5 0 9.1 4.1 9.1 9.1s-4.1 9.1-9.1 9.1H74c-5 0-9.1-4.1-9.1-9.1V605.3c0-5 4.1-9.1 9.1-9.1h877.2c5 0 9.1 4.1 9.1 9.1v134.3c0.1 5-4 9.1-9.1 9.1z" fill="#2c2c2c" p-id="2239"></path><path d="M770.8 938.6c-0.8 0-1.7-0.1-2.5-0.3-2.3-0.7-4.3-2.2-5.5-4.3l-50.6-90.2-31.6 30.2c-2.5 2.4-6.1 3.1-9.3 2-3.2-1.1-5.6-4-6.1-7.4L635 652.9c-0.5-3.7 1.3-7.4 4.6-9.2 3.3-1.8 7.4-1.5 10.3 0.9l168.2 138.2c2.6 2.2 3.9 5.7 3.1 9-0.7 3.3-3.3 6-6.6 6.9l-42.2 11.2 50.6 90.2c2.5 4.4 0.9 10-3.5 12.4l-44.2 24.8c-1.4 0.9-2.9 1.3-4.5 1.3z m-56.3-118.8c0.4 0 0.9 0 1.4 0.1 2.8 0.4 5.2 2.1 6.6 4.6l51.9 92.5 28.3-15.9-51.9-92.5c-1.4-2.5-1.5-5.4-0.4-8 1.1-2.6 3.3-4.5 6.1-5.3l36.4-9.7-136.5-112L681 848.4l27.2-26c1.7-1.7 3.9-2.6 6.3-2.6z" fill="#2c2c2c" p-id="2240"></path><path d="M951.2 865.1H830.4c-5 0-9.1-4.1-9.1-9.1s4.1-9.1 9.1-9.1h120.8c5 0 9.1 4.1 9.1 9.1 0.1 5-4 9.1-9.1 9.1zM627.5 865.1H303.8c-5 0-9.1-4.1-9.1-9.1s4.1-9.1 9.1-9.1h323.7c5 0 9.1 4.1 9.1 9.1s-4.1 9.1-9.1 9.1zM185.9 865.1H74c-5 0-9.1-4.1-9.1-9.1s4.1-9.1 9.1-9.1h111.9c5 0 9.1 4.1 9.1 9.1 0.1 5-4 9.1-9.1 9.1zM244.1 891.9c-19.8 0-36-16.1-36-36 0-19.8 16.1-36 36-36s36 16.1 36 36-16.1 36-36 36z m0-53.7c-9.8 0-17.7 7.9-17.7 17.7 0 9.8 7.9 17.7 17.7 17.7 9.8 0 17.7-7.9 17.7-17.7 0-9.7-7.9-17.7-17.7-17.7zM208.3 744.1c-2.5 0-4.6-2-4.6-4.6V605.3c0-2.5 2-4.6 4.6-4.6s4.6 2 4.6 4.6v134.3c0 2.5-2.1 4.5-4.6 4.5zM306.8 744.1c-2.5 0-4.6-2-4.6-4.6V605.3c0-2.5 2-4.6 4.6-4.6 2.5 0 4.6 2 4.6 4.6v134.3c-0.1 2.5-2.1 4.5-4.6 4.5zM521.6 744.1c-2.5 0-4.6-2-4.6-4.6V605.3c0-2.5 2-4.6 4.6-4.6 2.5 0 4.6 2 4.6 4.6v134.3c0 2.5-2.1 4.5-4.6 4.5zM861.7 744.1c-2.5 0-4.6-2-4.6-4.6V605.3c0-2.5 2-4.6 4.6-4.6s4.6 2 4.6 4.6v134.3c0 2.5-2.1 4.5-4.6 4.5zM604.1 411c-1.6 0-3.2-0.4-4.6-1.2a9.12 9.12 0 0 1-4.6-7.9V253.8c0-3.3 1.7-6.3 4.6-7.9 2.8-1.6 6.3-1.6 9.1 0l128.4 74c2.8 1.6 4.6 4.6 4.6 7.9s-1.7 6.3-4.6 7.9l-128.3 74.1c-1.4 0.8-3 1.2-4.6 1.2z m9.2-141.4v116.5l100.9-58.2-100.9-58.3z" fill="#2c2c2c" p-id="2241"></path></svg>