<?xml version="1.0" standalone="no"?><!DOCTYPE svg PUBLIC "-//W3C//DTD SVG 1.1//EN" "http://www.w3.org/Graphics/SVG/1.1/DTD/svg11.dtd"><svg t="1522074803132" class="icon" style="" viewBox="0 0 1024 1024" version="1.1" xmlns="http://www.w3.org/2000/svg" p-id="4014" xmlns:xlink="http://www.w3.org/1999/xlink" width="200" height="200"><defs><style type="text/css"></style></defs><path d="M230 96h-98c-5.4 0-9.8 4.4-9.8 9.8v68.6h-49c-5.4 0-9.8 4.4-9.8 9.8v196.1c0 5.4 4.4 9.8 9.8 9.8s9.8-4.4 9.8-9.8V194h39.2v637.2c0 1.7 0.4 3.3 1.2 4.8l49 88.2c1.7 3.1 5 5 8.6 5 3.6 0 6.8-1.9 8.6-5l49-88.2c0.8-1.5 1.2-3.1 1.2-4.8V105.8c0-5.4-4.4-9.8-9.8-9.8z m-9.8 732.7L181 899.3l-39.2-70.6V792h78.4v36.7z m0-56.3h-78.4V743h78.4v29.4z m0-49h-78.4V694h78.4v29.4z m0-49h-78.4V645h78.4v29.4z m0-49h-78.4V596h78.4v29.4z m0-49.1h-78.4V194h78.4v382.3z m0-401.9h-78.4v-58.8h78.4v58.8zM386.8 96c-32.4 0-58.8 26.4-58.8 58.8v676.4c0 1.7 0.4 3.3 1.2 4.8l49 88.2c1.7 3.1 5 5 8.6 5s6.8-1.9 8.6-5l49-88.2c0.8-1.5 1.2-3.1 1.2-4.8V154.8c0.1-32.4-26.3-58.8-58.8-58.8z m-39.2 98h17.2v578.4h-17.2V194z m78.5 634.7l-39.2 70.6-39.2-70.6V792h78.4v36.7z m-51.5-56.3V194h24.5v578.4h-24.5z m51.5 0h-17.2V194h17.2v578.4z m0-598h-78.4v-19.6c0-21.6 17.6-39.2 39.2-39.2s39.2 17.6 39.2 39.2v19.6zM681 91.1H538.8c-5.4 0-9.8 4.4-9.8 9.8v813.7c0 5.4 4.4 9.8 9.8 9.8H681c5.4 0 9.8-4.4 9.8-9.8V100.9c0-5.4-4.4-9.8-9.8-9.8z m-9.8 813.7H548.6v-53.9h49c2.7 0 4.9-2.2 4.9-4.9s-2.2-4.9-4.9-4.9h-49v-29.4h49c2.7 0 4.9-2.2 4.9-4.9s-2.2-4.9-4.9-4.9h-49v-29.4h49c2.7 0 4.9-2.2 4.9-4.9s-2.2-4.9-4.9-4.9h-49v-29.4h49c2.7 0 4.9-2.2 4.9-4.9s-2.2-4.9-4.9-4.9h-49V694h49c2.7 0 4.9-2.2 4.9-4.9s-2.2-4.9-4.9-4.9h-49v-29.4h49c2.7 0 4.9-2.2 4.9-4.9s-2.2-4.9-4.9-4.9h-49v-29.4h49c2.7 0 4.9-2.2 4.9-4.9s-2.2-4.9-4.9-4.9h-49v-29.4h49c2.7 0 4.9-2.2 4.9-4.9s-2.2-4.9-4.9-4.9h-49v-29.4h49c2.7 0 4.9-2.2 4.9-4.9s-2.2-4.9-4.9-4.9h-49V498h49c2.7 0 4.9-2.2 4.9-4.9s-2.2-4.9-4.9-4.9h-49v-29.4h49c2.7 0 4.9-2.2 4.9-4.9s-2.2-4.9-4.9-4.9h-49v-29.4h49c2.7 0 4.9-2.2 4.9-4.9s-2.2-4.9-4.9-4.9h-49v-29.4h49c2.7 0 4.9-2.2 4.9-4.9s-2.2-4.9-4.9-4.9h-49v-29.4h49c2.7 0 4.9-2.2 4.9-4.9s-2.2-4.9-4.9-4.9h-49V302h49c2.7 0 4.9-2.2 4.9-4.9s-2.2-4.9-4.9-4.9h-49v-29.4h49c2.7 0 4.9-2.2 4.9-4.9s-2.2-4.9-4.9-4.9h-49V110.7h122.5v794.1z" fill="#d81e06" p-id="4015"></path><path d="M609.9 203.8c13.5 0 24.5-11 24.5-24.5s-11-24.5-24.5-24.5-24.5 11-24.5 24.5 11 24.5 24.5 24.5z m0-39.2c8.1 0 14.7 6.6 14.7 14.7S618 194 609.9 194s-14.7-6.6-14.7-14.7 6.6-14.7 14.7-14.7zM862.3 610.7c-54.1 0-98 44-98 98v117.6c0 54.1 44 98 98 98 54.1 0 98-44 98-98V708.7c0.1-54.1-43.9-98-98-98z m78.4 215.6c0 43.2-35.2 78.4-78.4 78.4s-78.4-35.2-78.4-78.4V708.7c0-43.2 35.2-78.4 78.4-78.4s78.4 35.2 78.4 78.4v117.6z" fill="#d81e06" p-id="4016"></path><path d="M862.3 674.4c-5.4 0-9.8 4.4-9.8 9.8v49c0 5.4 4.4 9.8 9.8 9.8s9.8-4.4 9.8-9.8v-49c0-5.4-4.4-9.8-9.8-9.8zM906.4 439.1c16.2 0 29.4 13.2 29.4 29.4s-13.2 29.4-29.4 29.4h-4.9c-27 0-49 22-49 49v39.2c0 5.4 4.4 9.8 9.8 9.8s9.8-4.4 9.8-9.8v-39.2c0-16.2 13.2-29.4 29.4-29.4h4.9c27 0 49-22 49-49s-22-49-49-49H798.6c-16.2 0-29.4-13.2-29.4-29.4v-9.8c0-16.2 13.2-29.4 29.4-29.4h107.8c27 0 49-22 49-49V292c0-27-22-49-49-49H798.6c-16.2 0-29.4-13.2-29.4-29.4v-9.8c0-16.2 13.2-29.4 29.4-29.4h19.6c27 0 49-22 49-49v-19.6c0-5.4-4.4-9.8-9.8-9.8s-9.8 4.4-9.8 9.8v19.6c0 16.2-13.2 29.4-29.4 29.4h-19.6c-27 0-49 22-49 49v9.8c0 27 22 49 49 49h107.8c16.2 0 29.4 13.2 29.4 29.4v9.8c0 16.2-13.2 29.4-29.4 29.4H798.6c-27 0-49 22-49 49v9.8c0 27 22 49 49 49h107.8z" fill="#d81e06" p-id="4017"></path></svg>